<mxfile host="app.diagrams.net" modified="2024-02-16T10:27:08.169Z" agent="Mozilla/5.0 (Windows NT 10.0; Win64; x64) AppleWebKit/537.36 (KHTML, like Gecko) Chrome/121.0.0.0 Safari/537.36" etag="A_C0gkwHtYyDa364ZmFS" version="23.1.4" type="github">
  <diagram name="Page-1" id="rWvj7r1L1JmkacUhFCVx">
    <mxGraphModel dx="704" dy="631" grid="1" gridSize="10" guides="1" tooltips="1" connect="1" arrows="1" fold="1" page="1" pageScale="1" pageWidth="827" pageHeight="1169" math="0" shadow="0">
      <root>
        <mxCell id="0" />
        <mxCell id="1" parent="0" />
        <mxCell id="3Qk4PJd8HGj3UVIdCU3T-5" value="PROFIL" style="swimlane;whiteSpace=wrap;html=1;labelBackgroundColor=none;fillColor=#FAE5C7;strokeColor=#0F8B8D;fontColor=#143642;" parent="1" vertex="1">
          <mxGeometry x="550" y="54" width="197" height="200" as="geometry">
            <mxRectangle x="340" y="400" width="80" height="30" as="alternateBounds" />
          </mxGeometry>
        </mxCell>
        <mxCell id="3Qk4PJd8HGj3UVIdCU3T-31" value="AGENCE" style="swimlane;whiteSpace=wrap;html=1;labelBackgroundColor=none;fillColor=#FAE5C7;strokeColor=#0F8B8D;fontColor=#143642;" parent="1" vertex="1">
          <mxGeometry x="550" y="360" width="200" height="159" as="geometry" />
        </mxCell>
        <mxCell id="36LpMrAdeBPOxPvOyXHZ-32" value="" style="shape=waypoint;sketch=0;size=6;pointerEvents=1;points=[];fillColor=none;resizable=0;rotatable=0;perimeter=centerPerimeter;snapToPoint=1;labelBackgroundColor=none;strokeColor=#0F8B8D;fontColor=#143642;" vertex="1" parent="3Qk4PJd8HGj3UVIdCU3T-31">
          <mxGeometry x="21" y="101" width="20" height="20" as="geometry" />
        </mxCell>
        <mxCell id="36LpMrAdeBPOxPvOyXHZ-33" value="" style="shape=waypoint;sketch=0;size=6;pointerEvents=1;points=[];fillColor=none;resizable=0;rotatable=0;perimeter=centerPerimeter;snapToPoint=1;labelBackgroundColor=none;strokeColor=#0F8B8D;fontColor=#143642;" vertex="1" parent="3Qk4PJd8HGj3UVIdCU3T-31">
          <mxGeometry x="21" y="34" width="20" height="20" as="geometry" />
        </mxCell>
        <mxCell id="36LpMrAdeBPOxPvOyXHZ-34" value="id" style="text;html=1;align=center;verticalAlign=middle;resizable=0;points=[];autosize=1;strokeColor=none;fillColor=none;labelBackgroundColor=none;fontColor=#143642;" vertex="1" parent="3Qk4PJd8HGj3UVIdCU3T-31">
          <mxGeometry x="31" y="29" width="30" height="30" as="geometry" />
        </mxCell>
        <mxCell id="36LpMrAdeBPOxPvOyXHZ-35" value="" style="shape=waypoint;sketch=0;size=6;pointerEvents=1;points=[];fillColor=none;resizable=0;rotatable=0;perimeter=centerPerimeter;snapToPoint=1;labelBackgroundColor=none;strokeColor=#0F8B8D;fontColor=#143642;" vertex="1" parent="3Qk4PJd8HGj3UVIdCU3T-31">
          <mxGeometry x="21" y="57" width="20" height="20" as="geometry" />
        </mxCell>
        <mxCell id="36LpMrAdeBPOxPvOyXHZ-36" value="" style="shape=waypoint;sketch=0;size=6;pointerEvents=1;points=[];fillColor=none;resizable=0;rotatable=0;perimeter=centerPerimeter;snapToPoint=1;labelBackgroundColor=none;strokeColor=#0F8B8D;fontColor=#143642;" vertex="1" parent="3Qk4PJd8HGj3UVIdCU3T-31">
          <mxGeometry x="21" y="79" width="20" height="20" as="geometry" />
        </mxCell>
        <mxCell id="36LpMrAdeBPOxPvOyXHZ-37" value="Nom" style="text;html=1;align=center;verticalAlign=middle;resizable=0;points=[];autosize=1;strokeColor=none;fillColor=none;labelBackgroundColor=none;fontColor=#143642;" vertex="1" parent="3Qk4PJd8HGj3UVIdCU3T-31">
          <mxGeometry x="28" y="52" width="50" height="30" as="geometry" />
        </mxCell>
        <mxCell id="36LpMrAdeBPOxPvOyXHZ-38" value="Adresse" style="text;html=1;align=center;verticalAlign=middle;resizable=0;points=[];autosize=1;strokeColor=none;fillColor=none;labelBackgroundColor=none;fontColor=#143642;" vertex="1" parent="3Qk4PJd8HGj3UVIdCU3T-31">
          <mxGeometry x="26" y="74" width="70" height="30" as="geometry" />
        </mxCell>
        <mxCell id="36LpMrAdeBPOxPvOyXHZ-39" value="Téléphone" style="text;html=1;align=center;verticalAlign=middle;resizable=0;points=[];autosize=1;strokeColor=none;fillColor=none;labelBackgroundColor=none;fontColor=#143642;" vertex="1" parent="3Qk4PJd8HGj3UVIdCU3T-31">
          <mxGeometry x="23" y="96" width="80" height="30" as="geometry" />
        </mxCell>
        <mxCell id="36LpMrAdeBPOxPvOyXHZ-40" value="" style="shape=waypoint;sketch=0;size=6;pointerEvents=1;points=[];fillColor=none;resizable=0;rotatable=0;perimeter=centerPerimeter;snapToPoint=1;labelBackgroundColor=none;strokeColor=#0F8B8D;fontColor=#143642;" vertex="1" parent="3Qk4PJd8HGj3UVIdCU3T-31">
          <mxGeometry x="21" y="125" width="20" height="20" as="geometry" />
        </mxCell>
        <mxCell id="36LpMrAdeBPOxPvOyXHZ-42" value="Email" style="text;html=1;align=center;verticalAlign=middle;resizable=0;points=[];autosize=1;strokeColor=none;fillColor=none;labelBackgroundColor=none;fontColor=#143642;" vertex="1" parent="3Qk4PJd8HGj3UVIdCU3T-31">
          <mxGeometry x="28" y="120" width="50" height="30" as="geometry" />
        </mxCell>
        <mxCell id="36LpMrAdeBPOxPvOyXHZ-49" style="edgeStyle=orthogonalEdgeStyle;rounded=0;orthogonalLoop=1;jettySize=auto;html=1;exitX=0.5;exitY=0;exitDx=0;exitDy=0;entryX=0;entryY=0.5;entryDx=0;entryDy=0;shape=link;" edge="1" parent="1" source="3Qk4PJd8HGj3UVIdCU3T-74" target="3Qk4PJd8HGj3UVIdCU3T-5">
          <mxGeometry relative="1" as="geometry" />
        </mxCell>
        <mxCell id="36LpMrAdeBPOxPvOyXHZ-50" style="edgeStyle=orthogonalEdgeStyle;rounded=0;orthogonalLoop=1;jettySize=auto;html=1;exitX=0.5;exitY=1;exitDx=0;exitDy=0;entryX=0;entryY=0.5;entryDx=0;entryDy=0;shape=link;" edge="1" parent="1" source="3Qk4PJd8HGj3UVIdCU3T-74" target="3Qk4PJd8HGj3UVIdCU3T-31">
          <mxGeometry relative="1" as="geometry" />
        </mxCell>
        <mxCell id="3Qk4PJd8HGj3UVIdCU3T-74" value="VEHICULE" style="swimlane;whiteSpace=wrap;html=1;labelBackgroundColor=none;fillColor=#FAE5C7;strokeColor=#0F8B8D;fontColor=#143642;" parent="1" vertex="1">
          <mxGeometry x="121" y="191" width="200" height="200" as="geometry" />
        </mxCell>
        <mxCell id="3Qk4PJd8HGj3UVIdCU3T-77" value="" style="shape=waypoint;sketch=0;size=6;pointerEvents=1;points=[];fillColor=none;resizable=0;rotatable=0;perimeter=centerPerimeter;snapToPoint=1;labelBackgroundColor=none;strokeColor=#0F8B8D;fontColor=#143642;" parent="3Qk4PJd8HGj3UVIdCU3T-74" vertex="1">
          <mxGeometry x="16" y="110" width="20" height="20" as="geometry" />
        </mxCell>
        <mxCell id="3Qk4PJd8HGj3UVIdCU3T-80" value="" style="shape=waypoint;sketch=0;size=6;pointerEvents=1;points=[];fillColor=none;resizable=0;rotatable=0;perimeter=centerPerimeter;snapToPoint=1;labelBackgroundColor=none;strokeColor=#0F8B8D;fontColor=#143642;" parent="3Qk4PJd8HGj3UVIdCU3T-74" vertex="1">
          <mxGeometry x="16" y="150" width="20" height="20" as="geometry" />
        </mxCell>
        <mxCell id="3Qk4PJd8HGj3UVIdCU3T-79" value="" style="shape=waypoint;sketch=0;size=6;pointerEvents=1;points=[];fillColor=none;resizable=0;rotatable=0;perimeter=centerPerimeter;snapToPoint=1;labelBackgroundColor=none;strokeColor=#0F8B8D;fontColor=#143642;" parent="3Qk4PJd8HGj3UVIdCU3T-74" vertex="1">
          <mxGeometry x="16" y="170" width="20" height="20" as="geometry" />
        </mxCell>
        <mxCell id="36LpMrAdeBPOxPvOyXHZ-14" value="" style="shape=waypoint;sketch=0;size=6;pointerEvents=1;points=[];fillColor=none;resizable=0;rotatable=0;perimeter=centerPerimeter;snapToPoint=1;labelBackgroundColor=none;strokeColor=#0F8B8D;fontColor=#143642;" vertex="1" parent="3Qk4PJd8HGj3UVIdCU3T-74">
          <mxGeometry x="16" y="90" width="20" height="20" as="geometry" />
        </mxCell>
        <mxCell id="36LpMrAdeBPOxPvOyXHZ-13" value="" style="shape=waypoint;sketch=0;size=6;pointerEvents=1;points=[];fillColor=none;resizable=0;rotatable=0;perimeter=centerPerimeter;snapToPoint=1;labelBackgroundColor=none;strokeColor=#0F8B8D;fontColor=#143642;" vertex="1" parent="3Qk4PJd8HGj3UVIdCU3T-74">
          <mxGeometry x="16" y="130" width="20" height="20" as="geometry" />
        </mxCell>
        <mxCell id="3Qk4PJd8HGj3UVIdCU3T-82" value="0 à 100 km/h" style="text;html=1;align=center;verticalAlign=middle;resizable=0;points=[];autosize=1;strokeColor=none;fillColor=none;labelBackgroundColor=none;fontColor=#143642;" parent="3Qk4PJd8HGj3UVIdCU3T-74" vertex="1">
          <mxGeometry x="25" y="84" width="90" height="30" as="geometry" />
        </mxCell>
        <mxCell id="36LpMrAdeBPOxPvOyXHZ-15" value="V.Max" style="text;html=1;align=center;verticalAlign=middle;resizable=0;points=[];autosize=1;strokeColor=none;fillColor=none;labelBackgroundColor=none;fontColor=#143642;" vertex="1" parent="3Qk4PJd8HGj3UVIdCU3T-74">
          <mxGeometry x="21" y="104" width="60" height="30" as="geometry" />
        </mxCell>
        <mxCell id="3Qk4PJd8HGj3UVIdCU3T-78" value="Puissance" style="text;html=1;align=center;verticalAlign=middle;resizable=0;points=[];autosize=1;strokeColor=none;fillColor=none;labelBackgroundColor=none;fontColor=#143642;" parent="3Qk4PJd8HGj3UVIdCU3T-74" vertex="1">
          <mxGeometry x="23" y="66" width="80" height="30" as="geometry" />
        </mxCell>
        <mxCell id="36LpMrAdeBPOxPvOyXHZ-16" value="Disponibiltés" style="text;html=1;align=center;verticalAlign=middle;resizable=0;points=[];autosize=1;strokeColor=none;fillColor=none;labelBackgroundColor=none;fontColor=#143642;" vertex="1" parent="3Qk4PJd8HGj3UVIdCU3T-74">
          <mxGeometry x="25" y="165" width="90" height="30" as="geometry" />
        </mxCell>
        <mxCell id="36LpMrAdeBPOxPvOyXHZ-12" value="&amp;nbsp;Agence" style="text;html=1;align=center;verticalAlign=middle;resizable=0;points=[];autosize=1;strokeColor=none;fillColor=none;labelBackgroundColor=none;fontColor=#143642;" vertex="1" parent="3Qk4PJd8HGj3UVIdCU3T-74">
          <mxGeometry x="21" y="145" width="70" height="30" as="geometry" />
        </mxCell>
        <mxCell id="3Qk4PJd8HGj3UVIdCU3T-81" value="Tarif journalier" style="text;html=1;align=center;verticalAlign=middle;resizable=0;points=[];autosize=1;strokeColor=none;fillColor=none;labelBackgroundColor=none;fontColor=#143642;" parent="3Qk4PJd8HGj3UVIdCU3T-74" vertex="1">
          <mxGeometry x="21" y="125" width="100" height="30" as="geometry" />
        </mxCell>
        <mxCell id="3Qk4PJd8HGj3UVIdCU3T-104" value="1 / N" style="rounded=0;whiteSpace=wrap;html=1;strokeColor=#0F8B8D;fontColor=#143642;fillColor=#FAE5C7;" parent="1" vertex="1">
          <mxGeometry x="495" y="117" width="50" height="30" as="geometry" />
        </mxCell>
        <mxCell id="3Qk4PJd8HGj3UVIdCU3T-105" value="1 / N" style="rounded=0;whiteSpace=wrap;html=1;strokeColor=#0F8B8D;fontColor=#143642;fillColor=#FAE5C7;" parent="1" vertex="1">
          <mxGeometry x="495" y="399.5" width="50" height="30" as="geometry" />
        </mxCell>
        <mxCell id="3Qk4PJd8HGj3UVIdCU3T-106" value="1 / 1" style="rounded=0;whiteSpace=wrap;html=1;strokeColor=#0F8B8D;fontColor=#143642;fillColor=#FAE5C7;" parent="1" vertex="1">
          <mxGeometry x="229" y="397.5" width="50" height="30" as="geometry" />
        </mxCell>
        <mxCell id="3Qk4PJd8HGj3UVIdCU3T-125" value="Appartenir" style="ellipse;shape=cloud;whiteSpace=wrap;html=1;labelBackgroundColor=none;fillColor=#FAE5C7;strokeColor=#0F8B8D;fontColor=#143642;" parent="1" vertex="1">
          <mxGeometry x="310" y="399.5" width="120" height="80" as="geometry" />
        </mxCell>
        <mxCell id="3Qk4PJd8HGj3UVIdCU3T-145" value="Réserver" style="ellipse;shape=cloud;whiteSpace=wrap;html=1;labelBackgroundColor=none;fillColor=#FAE5C7;strokeColor=#0F8B8D;fontColor=#143642;" parent="1" vertex="1">
          <mxGeometry x="310" y="116" width="110" height="70" as="geometry" />
        </mxCell>
        <mxCell id="3Qk4PJd8HGj3UVIdCU3T-163" value="1 / N" style="rounded=0;whiteSpace=wrap;html=1;strokeColor=#0F8B8D;fontColor=#143642;fillColor=#FAE5C7;" parent="1" vertex="1">
          <mxGeometry x="162" y="156" width="50" height="30" as="geometry" />
        </mxCell>
        <mxCell id="36LpMrAdeBPOxPvOyXHZ-5" value="" style="shape=waypoint;sketch=0;size=6;pointerEvents=1;points=[];fillColor=none;resizable=0;rotatable=0;perimeter=centerPerimeter;snapToPoint=1;labelBackgroundColor=none;strokeColor=#0F8B8D;fontColor=#143642;" vertex="1" parent="1">
          <mxGeometry x="136" y="264" width="20" height="20" as="geometry" />
        </mxCell>
        <mxCell id="36LpMrAdeBPOxPvOyXHZ-6" value="" style="shape=waypoint;sketch=0;size=6;pointerEvents=1;points=[];fillColor=none;resizable=0;rotatable=0;perimeter=centerPerimeter;snapToPoint=1;labelBackgroundColor=none;strokeColor=#0F8B8D;fontColor=#143642;" vertex="1" parent="1">
          <mxGeometry x="136" y="222" width="20" height="20" as="geometry" />
        </mxCell>
        <mxCell id="36LpMrAdeBPOxPvOyXHZ-7" value="id" style="text;html=1;align=center;verticalAlign=middle;resizable=0;points=[];autosize=1;strokeColor=none;fillColor=none;labelBackgroundColor=none;fontColor=#143642;" vertex="1" parent="1">
          <mxGeometry x="146" y="214" width="30" height="30" as="geometry" />
        </mxCell>
        <mxCell id="36LpMrAdeBPOxPvOyXHZ-8" value="" style="shape=waypoint;sketch=0;size=6;pointerEvents=1;points=[];fillColor=none;resizable=0;rotatable=0;perimeter=centerPerimeter;snapToPoint=1;labelBackgroundColor=none;strokeColor=#0F8B8D;fontColor=#143642;" vertex="1" parent="1">
          <mxGeometry x="136" y="235" width="20" height="20" as="geometry" />
        </mxCell>
        <mxCell id="36LpMrAdeBPOxPvOyXHZ-9" value="" style="shape=waypoint;sketch=0;size=6;pointerEvents=1;points=[];fillColor=none;resizable=0;rotatable=0;perimeter=centerPerimeter;snapToPoint=1;labelBackgroundColor=none;strokeColor=#0F8B8D;fontColor=#143642;" vertex="1" parent="1">
          <mxGeometry x="136" y="249" width="20" height="20" as="geometry" />
        </mxCell>
        <mxCell id="36LpMrAdeBPOxPvOyXHZ-10" value="Marque" style="text;html=1;align=center;verticalAlign=middle;resizable=0;points=[];autosize=1;strokeColor=none;fillColor=none;labelBackgroundColor=none;fontColor=#143642;" vertex="1" parent="1">
          <mxGeometry x="147" y="229" width="60" height="30" as="geometry" />
        </mxCell>
        <mxCell id="36LpMrAdeBPOxPvOyXHZ-11" value="Modèle" style="text;html=1;align=center;verticalAlign=middle;resizable=0;points=[];autosize=1;strokeColor=none;fillColor=none;labelBackgroundColor=none;fontColor=#143642;" vertex="1" parent="1">
          <mxGeometry x="146" y="244" width="60" height="30" as="geometry" />
        </mxCell>
        <mxCell id="36LpMrAdeBPOxPvOyXHZ-20" value="" style="shape=waypoint;sketch=0;size=6;pointerEvents=1;points=[];fillColor=none;resizable=0;rotatable=0;perimeter=centerPerimeter;snapToPoint=1;labelBackgroundColor=none;strokeColor=#0F8B8D;fontColor=#143642;" vertex="1" parent="1">
          <mxGeometry x="561" y="166" width="20" height="20" as="geometry" />
        </mxCell>
        <mxCell id="36LpMrAdeBPOxPvOyXHZ-21" value="" style="shape=waypoint;sketch=0;size=6;pointerEvents=1;points=[];fillColor=none;resizable=0;rotatable=0;perimeter=centerPerimeter;snapToPoint=1;labelBackgroundColor=none;strokeColor=#0F8B8D;fontColor=#143642;" vertex="1" parent="1">
          <mxGeometry x="561" y="99" width="20" height="20" as="geometry" />
        </mxCell>
        <mxCell id="36LpMrAdeBPOxPvOyXHZ-22" value="id" style="text;html=1;align=center;verticalAlign=middle;resizable=0;points=[];autosize=1;strokeColor=none;fillColor=none;labelBackgroundColor=none;fontColor=#143642;" vertex="1" parent="1">
          <mxGeometry x="571" y="94" width="30" height="30" as="geometry" />
        </mxCell>
        <mxCell id="36LpMrAdeBPOxPvOyXHZ-23" value="" style="shape=waypoint;sketch=0;size=6;pointerEvents=1;points=[];fillColor=none;resizable=0;rotatable=0;perimeter=centerPerimeter;snapToPoint=1;labelBackgroundColor=none;strokeColor=#0F8B8D;fontColor=#143642;" vertex="1" parent="1">
          <mxGeometry x="561" y="122" width="20" height="20" as="geometry" />
        </mxCell>
        <mxCell id="36LpMrAdeBPOxPvOyXHZ-24" value="" style="shape=waypoint;sketch=0;size=6;pointerEvents=1;points=[];fillColor=none;resizable=0;rotatable=0;perimeter=centerPerimeter;snapToPoint=1;labelBackgroundColor=none;strokeColor=#0F8B8D;fontColor=#143642;" vertex="1" parent="1">
          <mxGeometry x="561" y="144" width="20" height="20" as="geometry" />
        </mxCell>
        <mxCell id="36LpMrAdeBPOxPvOyXHZ-25" value="Nom" style="text;html=1;align=center;verticalAlign=middle;resizable=0;points=[];autosize=1;strokeColor=none;fillColor=none;labelBackgroundColor=none;fontColor=#143642;" vertex="1" parent="1">
          <mxGeometry x="571" y="117" width="50" height="30" as="geometry" />
        </mxCell>
        <mxCell id="36LpMrAdeBPOxPvOyXHZ-26" value="Prénom" style="text;html=1;align=center;verticalAlign=middle;resizable=0;points=[];autosize=1;strokeColor=none;fillColor=none;labelBackgroundColor=none;fontColor=#143642;" vertex="1" parent="1">
          <mxGeometry x="568" y="139" width="70" height="30" as="geometry" />
        </mxCell>
        <mxCell id="36LpMrAdeBPOxPvOyXHZ-27" value="Email" style="text;html=1;align=center;verticalAlign=middle;resizable=0;points=[];autosize=1;strokeColor=none;fillColor=none;labelBackgroundColor=none;fontColor=#143642;" vertex="1" parent="1">
          <mxGeometry x="571" y="161" width="50" height="30" as="geometry" />
        </mxCell>
        <mxCell id="36LpMrAdeBPOxPvOyXHZ-28" value="" style="shape=waypoint;sketch=0;size=6;pointerEvents=1;points=[];fillColor=none;resizable=0;rotatable=0;perimeter=centerPerimeter;snapToPoint=1;labelBackgroundColor=none;strokeColor=#0F8B8D;fontColor=#143642;" vertex="1" parent="1">
          <mxGeometry x="561" y="204" width="20" height="20" as="geometry" />
        </mxCell>
        <mxCell id="36LpMrAdeBPOxPvOyXHZ-29" value="" style="shape=waypoint;sketch=0;size=6;pointerEvents=1;points=[];fillColor=none;resizable=0;rotatable=0;perimeter=centerPerimeter;snapToPoint=1;labelBackgroundColor=none;strokeColor=#0F8B8D;fontColor=#143642;" vertex="1" parent="1">
          <mxGeometry x="561" y="184" width="20" height="20" as="geometry" />
        </mxCell>
        <mxCell id="36LpMrAdeBPOxPvOyXHZ-30" value="N° Permis de conduire" style="text;html=1;align=center;verticalAlign=middle;resizable=0;points=[];autosize=1;strokeColor=none;fillColor=none;labelBackgroundColor=none;fontColor=#143642;" vertex="1" parent="1">
          <mxGeometry x="570" y="199" width="140" height="30" as="geometry" />
        </mxCell>
        <mxCell id="36LpMrAdeBPOxPvOyXHZ-31" value="Adresse" style="text;html=1;align=center;verticalAlign=middle;resizable=0;points=[];autosize=1;strokeColor=none;fillColor=none;labelBackgroundColor=none;fontColor=#143642;" vertex="1" parent="1">
          <mxGeometry x="567" y="179" width="70" height="30" as="geometry" />
        </mxCell>
      </root>
    </mxGraphModel>
  </diagram>
</mxfile>
